<svg width="24" height="24" viewBox="0 0 24 24" fill="none" xmlns="http://www.w3.org/2000/svg">
<path d="M18 8.64C18 7.11236 17.3679 5.64728 16.2426 4.56707C15.1174 3.48686 13.5913 2.88 12 2.88C10.4087 2.88 8.88258 3.48686 7.75736 4.56707C6.63214 5.64728 6 7.11236 6 8.64C6 15.36 3 17.28 3 17.28H21C21 17.28 18 15.36 18 8.64Z" stroke="#52575C" stroke-width="2" stroke-linecap="round" stroke-linejoin="round"/>
<path d="M13.73 21.12C13.5542 21.411 13.3018 21.6525 12.9982 21.8203C12.6946 21.9882 12.3504 22.0766 12 22.0766C11.6496 22.0766 11.3054 21.9882 11.0018 21.8203C10.6981 21.6525 10.4458 21.411 10.27 21.12" stroke="#52575C" stroke-width="2" stroke-linecap="round" stroke-linejoin="round"/>
</svg>
