<svg width="48" height="49" viewBox="0 0 48 49" fill="none" xmlns="http://www.w3.org/2000/svg">
<rect width="48" height="48" fill="#F8F8F8"/>
<path d="M30 20.64C30 19.1124 29.3679 17.6473 28.2426 16.5671C27.1174 15.4869 25.5913 14.88 24 14.88C22.4087 14.88 20.8826 15.4869 19.7574 16.5671C18.6321 17.6473 18 19.1124 18 20.64C18 27.36 15 29.28 15 29.28H33C33 29.28 30 27.36 30 20.64Z" stroke="#52575C" stroke-width="2" stroke-linecap="round" stroke-linejoin="round"/>
<path d="M25.73 33.12C25.5542 33.411 25.3018 33.6525 24.9982 33.8203C24.6946 33.9882 24.3504 34.0766 24 34.0766C23.6496 34.0766 23.3054 33.9882 23.0018 33.8203C22.6981 33.6525 22.4458 33.411 22.27 33.12" stroke="#52575C" stroke-width="2" stroke-linecap="round" stroke-linejoin="round"/>
<circle cx="32" cy="16" r="7" fill="#EA6F06"/>
<path d="M30.968 17.82C31.096 17.82 31.192 17.8493 31.256 17.908C31.32 17.9667 31.352 18.0493 31.352 18.156C31.352 18.3853 31.224 18.5 30.968 18.5H28.296C28.0347 18.5 27.904 18.3853 27.904 18.156C27.904 18.0493 27.936 17.9667 28 17.908C28.0693 17.8493 28.168 17.82 28.296 17.82H29.216V13.828L28.392 14.348C28.3387 14.38 28.2853 14.396 28.232 14.396C28.1413 14.396 28.0613 14.356 27.992 14.276C27.928 14.196 27.896 14.1053 27.896 14.004C27.896 13.8813 27.9493 13.7853 28.056 13.716L29.288 12.932C29.4107 12.8573 29.528 12.82 29.64 12.82C29.7573 12.82 29.8533 12.8573 29.928 12.932C30.0027 13.0067 30.04 13.108 30.04 13.236V17.82H30.968ZM35.8209 12.86C35.9382 12.86 36.0262 12.892 36.0849 12.956C36.1489 13.02 36.1809 13.1027 36.1809 13.204C36.1809 13.3 36.1515 13.4013 36.0929 13.508L33.4769 18.34C33.3915 18.4893 33.2742 18.564 33.1249 18.564C33.0235 18.564 32.9302 18.5293 32.8449 18.46C32.7649 18.3853 32.7249 18.2947 32.7249 18.188C32.7249 18.124 32.7462 18.0493 32.7889 17.964L35.1969 13.54H32.5969C32.4689 13.54 32.3729 13.5107 32.3089 13.452C32.2449 13.3933 32.2129 13.3107 32.2129 13.204C32.2129 12.9747 32.3409 12.86 32.5969 12.86H35.8209Z" fill="black"/>
</svg>
